<?xml version="1.0" encoding="UTF-8"?>
<svg id="Layer_2" data-name="Layer 2" xmlns="http://www.w3.org/2000/svg" viewBox="0 0 498.52 498.52">
  <g id="Layer_1-2" data-name="Layer 1">
    <path d="M43.6.27l409.64-.27c23.61,2.83,42.44,21.66,45.27,45.27l.02,407.01c-2.21,24.01-21.44,43.37-45.29,46.22l-407.01.02c-24.01-2.21-43.37-21.44-46.22-45.29V45.27C2.74,22.34,20.74,3.65,43.6.27ZM109.79,67.45c-44.64,3.44-57.98,61.04-20.51,83.3,31.67,18.81,70.64-6.68,67.51-43.17-1.98-23.1-23.91-41.9-47-40.12ZM423.52,423.52v-151.39c0-.16-.79-1.02-.92-2-8.3-62.83-83.49-100.07-134.43-56.44-4.95,4.24-8.9,9.68-13.6,14.14v-28.23h-74.96v223.91h74.96v-138.73c0-2.24,4.75-11.75,6.36-14.08,15.02-21.65,46.25-21.65,61.26,0,1.62,2.33,6.36,11.84,6.36,14.08v138.73h74.96ZM149.95,199.6h-74.96v223.91h74.96v-223.91Z"/>
  </g>
</svg>